# xmcd CD database file
#
# Track frame offsets:
#	183
#	10088
#	17075
#	24990
#	40485
#	50395
#	60035
#	77403
#	104753
#	122050
#	131133
#	149045
#	161700
#	174263
#
# Disc length: 2463 seconds
#
# Revision: 1
# Processed by: cddbd v1.5.2PL0 Copyright (c) Steve Scherf et al.
# Submitted via: CDex 1.70beta2
#
DISCID=b3099d0e
DTITLE=AA.VV. - 35 - Canti della Grande Guerra
DYEAR=1900
DGENRE=Pop
TTITLE0=Canti della Patria - Addio del volontario
TTITLE1=Canti della Patria - La bella Gigogin
TTITLE2=Canti della Patria - Inno al Piave
TTITLE3=Coro SAT - Il testamento del capitano
TTITLE4=Coro Grigna - Di qua di là dal Piave
TTITLE5=Coro Grigna - Ti ricordi la sera dei baci
TTITLE6=Coro Monterosa - Era una notte che pioveva
TTITLE7=Coro Monterosa - Leggenda di guerra
TTITLE8=Coro Monterosa - Sul ponte di Perati
TTITLE9=Canti della Patria - La campana di San Giusto
TTITLE10=Barabàn - Fuoco e mitragliatrici
TTITLE11=Coro Monte Cauriol - La rivista dell'armamento
TTITLE12=Coro Monte Cauriol - La tradotta
TTITLE13=Coro Monte Cauriol - La sonata dei congeda'
EXTD=
EXTT0=
EXTT1=
EXTT2=
EXTT3=
EXTT4=
EXTT5=
EXTT6=
EXTT7=
EXTT8=
EXTT9=
EXTT10=
EXTT11=
EXTT12=
EXTT13=
PLAYORDER=
